<mxfile host="app.diagrams.net" modified="2021-05-23T07:22:27.766Z" agent="5.0 (Macintosh; Intel Mac OS X 10_15_7) AppleWebKit/537.36 (KHTML, like Gecko) Chrome/90.0.4430.212 Safari/537.36" etag="KLS20MHsUZYasC8RduJl" version="14.7.0" type="github">
  <diagram id="C5RBs43oDa-KdzZeNtuy" name="Page-1">
    <mxGraphModel dx="2125" dy="729" grid="1" gridSize="10" guides="1" tooltips="1" connect="1" arrows="1" fold="1" page="1" pageScale="1" pageWidth="827" pageHeight="1169" math="0" shadow="0">
      <root>
        <mxCell id="WIyWlLk6GJQsqaUBKTNV-0" />
        <mxCell id="WIyWlLk6GJQsqaUBKTNV-1" parent="WIyWlLk6GJQsqaUBKTNV-0" />
        <mxCell id="9unGQqfA-TJdvyLDyZqL-0" value="&lt;div style=&quot;text-align: left ; line-height: 1.75 ; font-size: 10px&quot;&gt;&lt;div style=&quot;line-height: 1.75 ; font-size: 10px&quot;&gt;&lt;span style=&quot;font-size: 10px&quot;&gt;TTVideoEngine.setIntOption(&lt;/span&gt;&lt;/div&gt;&lt;div style=&quot;line-height: 1.75 ; font-size: 10px&quot;&gt;&lt;span style=&quot;font-size: 10px&quot;&gt;PLAYER_OPTION_ENABLE_VOLUME_BALANCE&lt;/span&gt;&lt;span style=&quot;font-size: 10px&quot;&gt;, 1)&lt;/span&gt;&lt;/div&gt;&lt;/div&gt;" style="rounded=1;whiteSpace=wrap;html=1;" vertex="1" parent="WIyWlLk6GJQsqaUBKTNV-1">
          <mxGeometry x="-360" y="180" width="300" height="60" as="geometry" />
        </mxCell>
        <mxCell id="9unGQqfA-TJdvyLDyZqL-1" value="&lt;pre style=&quot;font-size: 9pt&quot;&gt;&lt;span style=&quot;background-color: rgb(255 , 255 , 255)&quot;&gt;&lt;font face=&quot;Helvetica&quot; style=&quot;font-size: 12px&quot;&gt;FeatureManager.hasPermission(&lt;/font&gt;&lt;/span&gt;&lt;/pre&gt;&lt;pre style=&quot;font-size: 9pt&quot;&gt;&lt;span style=&quot;background-color: rgb(255 , 255 , 255)&quot;&gt;&lt;font face=&quot;Helvetica&quot; style=&quot;font-size: 12px&quot;&gt;FeatureManager.VOLUME_BALANCE)&lt;/font&gt;&lt;/span&gt;&lt;/pre&gt;" style="rhombus;whiteSpace=wrap;html=1;" vertex="1" parent="WIyWlLk6GJQsqaUBKTNV-1">
          <mxGeometry x="-50" y="110" width="80" height="80" as="geometry" />
        </mxCell>
        <mxCell id="9unGQqfA-TJdvyLDyZqL-3" style="edgeStyle=orthogonalEdgeStyle;rounded=0;orthogonalLoop=1;jettySize=auto;html=1;entryX=0;entryY=0.5;entryDx=0;entryDy=0;" edge="1" parent="WIyWlLk6GJQsqaUBKTNV-1" source="9unGQqfA-TJdvyLDyZqL-0" target="9unGQqfA-TJdvyLDyZqL-5">
          <mxGeometry relative="1" as="geometry">
            <mxPoint x="160" y="210" as="targetPoint" />
          </mxGeometry>
        </mxCell>
        <mxCell id="9unGQqfA-TJdvyLDyZqL-4" value="yes" style="text;html=1;strokeColor=none;fillColor=none;align=center;verticalAlign=middle;whiteSpace=wrap;rounded=0;" vertex="1" parent="WIyWlLk6GJQsqaUBKTNV-1">
          <mxGeometry x="100" y="190" width="40" height="20" as="geometry" />
        </mxCell>
        <mxCell id="9unGQqfA-TJdvyLDyZqL-7" style="edgeStyle=orthogonalEdgeStyle;rounded=0;orthogonalLoop=1;jettySize=auto;html=1;" edge="1" parent="WIyWlLk6GJQsqaUBKTNV-1" source="9unGQqfA-TJdvyLDyZqL-5" target="9unGQqfA-TJdvyLDyZqL-8">
          <mxGeometry relative="1" as="geometry">
            <mxPoint x="480" y="210" as="targetPoint" />
          </mxGeometry>
        </mxCell>
        <mxCell id="9unGQqfA-TJdvyLDyZqL-5" value="&lt;div style=&quot;text-align: left ; line-height: 1.75&quot;&gt;&lt;font style=&quot;font-size: 12px&quot;&gt;mMediaPlayer.setIntOption(&lt;/font&gt;&lt;/div&gt;&lt;div style=&quot;text-align: left ; line-height: 1.75&quot;&gt;&lt;font style=&quot;font-size: 12px&quot;&gt;MEDIA_PLAYER_OPTION_ENABLE_AUDIO_EFFECT, value)&lt;/font&gt;&lt;/div&gt;" style="rounded=1;whiteSpace=wrap;html=1;" vertex="1" parent="WIyWlLk6GJQsqaUBKTNV-1">
          <mxGeometry x="30" y="180" width="340" height="60" as="geometry" />
        </mxCell>
        <mxCell id="9unGQqfA-TJdvyLDyZqL-8" value="&lt;div style=&quot;text-align: left ; line-height: 1.75 ; font-size: 14px&quot;&gt;TTPlayer.setIntValue_l(KeyIsEnableAudioEffectSI, value)&lt;/div&gt;" style="rounded=1;whiteSpace=wrap;html=1;" vertex="1" parent="WIyWlLk6GJQsqaUBKTNV-1">
          <mxGeometry x="450" y="180" width="320" height="60" as="geometry" />
        </mxCell>
        <mxCell id="9unGQqfA-TJdvyLDyZqL-9" value="&lt;div style=&quot;text-align: left ; line-height: 1.75 ; font-size: 14px&quot;&gt;AudioOut::settingAudioEffect()&lt;/div&gt;" style="rounded=1;whiteSpace=wrap;html=1;" vertex="1" parent="WIyWlLk6GJQsqaUBKTNV-1">
          <mxGeometry x="-360" y="350" width="300" height="60" as="geometry" />
        </mxCell>
      </root>
    </mxGraphModel>
  </diagram>
</mxfile>
